PathFileType	4	(X/Y/Z)	C:/Users/beibeiliu/ov580/test_trc\sequence.1_training_dense_left.trc
DataRate	CameraRate	NumFrames	NumMarkers	Units	OrigDataRate	OrigDataStartFrame	OrigNumFrames
120	120	15	19	mm	120	302	345
Frame#	Time	ThumbCMC			ThumbMCP			ThumbIP			ThumbTip			IndexMCP			IndexPIP			IndexTip			MiddleMCP			MiddlePIP			MiddleTip			RingMCP			RingPIP			RingTip			PinkyMCP			PinkyPIP			PinkyTip			BackHand1			BackHand2			BackHand3	
		X0	Y0	Z0	X1	Y1	Z1	X2	Y2	Z2	X3	Y3	Z3	X4	Y4	Z4	X5	Y5	Z5	X6	Y6	Z6	X7	Y7	Z7	X8	Y8	Z8	X9	Y9	Z9	X10	Y10	Z10	X11	Y11	Z11	X12	Y12	Z12	X13	Y13	Z13	X14	Y14	Z14	X15	Y15	Z15	X16	Y16	Z16	X17	Y17	Z17	X18	Y18	Z18	
301	2.50833	-224.428	-8.22059	-0.300085	-237.155	-3.85182	-24.8063	-241.981	-8.16727	-48.1661	-249.245	-5.91662	-66.2897	-226.517	-45.7358	-58.8784	-230.905	-51.2715	-76.2582	-234.963	-58.3396	-101.444	-207.039	-59.1197	-61.3225	-206.128	-65.645	-80.9757	-205.361	-76.2101	-105.617	-192.985	-60.4531	-55.2313	-188.576	-68.7336	-72.8169	-191.36	-76.2582	-93.2891	-167.9	-58.1739	-43.4747	-163.228	-65.5566	-60.0239	-165.274	-73.9152	-77.7235	-190.835	-49.8653	-10.3854	-192.609	-42.8584	10.587	-216.195	-40.0571	-2.48434	
302	2.51667	-228.098	-8.03241	-1.44664	-237.117	-2.17378	-22.4292	-244.833	-5.14573	-45.0715	-251.327	-4.285	-63.4442	-233.09	-45.2844	-56.6851	-234.899	-52.6988	-74.1103	-238.223	-60.1276	-96.0349	-214.27	-59.5836	-60.1026	-213.73	-69.0846	-81.6409	-211.579	-78.9199	-104.339	-195.461	-61.292	-50.5756	-194.573	-71.9199	-71.6799	-192.898	-81.7955	-91.6613	-173.185	-56.0485	-37.9513	-169.027	-67.3284	-55.3935	-169.623	-76.8097	-76.0432	-194.782	-48.1655	-10.8797	-192.92	-42.0564	16.345	-220.425	-35.8533	1.55702	
303	2.525	-226.13	-6.68274	1.89234	-235.486	-0.279923	-20.78	-247.991	-0.656186	-43.3858	-253.719	-2.24082	-62.3513	-236.51	-44.8204	-54.4398	-239.055	-55.0452	-75.2523	-241.891	-61.3127	-93.6502	-215.551	-60.6959	-54.8239	-218.52	-70.3186	-77.2076	-216.516	-82.3495	-99.7904	-199.483	-61.2409	-45.9423	-200.592	-71.9734	-65.0572	-200.631	-83.7679	-88.6817	-177.594	-58.8137	-35.0747	-171.958	-72.355	-55.2111	-170.081	-83.2924	-68.1454	-198.016	-49.0074	-9.82142	-193.043	-43.1016	17.8284	-223.887	-36.1287	2.15695	
304	2.53333	-227.492	-6.34799	1.05579	-239.148	2.07815	-20.2912	-248.607	-1.56827	-44.2083	-254.861	-1.15314	-63.228	-237.075	-44.9032	-49.0601	-244.066	-54.4284	-73.6891	-247.478	-61.1856	-89.0977	-219.272	-60.4909	-50.6429	-224.985	-70.1647	-71.1947	-220.436	-85.9632	-98.5451	-204.069	-64.5242	-45.7322	-206.21	-75.2346	-63.5733	-204.632	-87.8049	-82.9482	-182.373	-62.3045	-35.8071	-177.893	-74.6182	-50.6754	-177.472	-86.3504	-69.4542	-199.887	-50.9601	-6.85773	-200.428	-40.2763	19.1164	-226.424	-35.3694	3.68641	
305	2.54167	-231.211	-5.08362	1.80357	-240.011	1.38349	-20.0785	-247.051	-1.53566	-42.1268	-256.307	-3.22721	-63.3612	-241.103	-45.4215	-49.2073	-248.993	-52.1512	-66.2018	-252.117	-62.974	-89.1663	-225.35	-61.8774	-50.4928	-230.267	-72.6965	-69.6517	-231.689	-85.8474	-93.0793	-207.73	-64.3477	-43.0017	-210.738	-79.2051	-63.3724	-211.903	-88.815	-77.9967	-184.12	-64.4374	-31.7435	-187.044	-76.6595	-48.3338	-186.573	-89.1724	-65.2297	-201.685	-50.486	-3.64243	-202.591	-43.0287	17.5693	-223.382	-34.8479	4.67332	
306	2.55	-229.709	-5.15813	2.33503	-242.899	4.94107	-18.9899	-249.365	-2.34531	-43.8286	-256.91	-0.608424	-62.4707	-245.463	-45.6006	-48.8509	-251.802	-55.5035	-68.523	-255.89	-65.2758	-86.8978	-227.863	-61.262	-46.2828	-232.576	-76.7865	-69.1342	-236.278	-91.0374	-91.3751	-211.13	-66.0345	-40.3643	-214.523	-79.7491	-58.9925	-217.318	-91.7014	-76.9869	-190.741	-68.4168	-33.2003	-190.127	-78.0034	-43.822	-189.67	-91.689	-58.4629	-208.101	-52.5336	-4.56572	-201.335	-44.0723	21.2774	-228.742	-33.3157	5.41984	
307	2.55833	-229.536	-5.81223	2.75024	-243.22	3.35518	-21.5693	-252.581	2.24244	-41.9895	-257.046	-3.08926	-61.5673	-246.591	-45.0741	-45.7772	-253.861	-54.9635	-66.645	-259.57	-63.4951	-83.8216	-232.481	-62.4959	-46.4169	-240.182	-76.0066	-68.9185	-238.374	-92.8704	-88.1156	-214.688	-69.5909	-40.7747	-219.478	-82.7257	-58.6482	-224.867	-93.1477	-77.5573	-191.408	-67.7701	-28.3589	-190.879	-81.6592	-41.1972	-195.371	-96.3441	-59.189	-209.824	-50.3958	-0.913428	-205.747	-42.6924	22.5209	-230.693	-32.7815	6.64931	
308	2.56667	-234.264	-2.36174	1.60288	-240.82	4.16199	-19.9227	-253.208	2.03536	-43.5466	-258.88	2.26343	-59.0801	-249.706	-43.8931	-45.7471	-256.307	-52.9988	-65.6745	-261.027	-63.6892	-83.1824	-232.902	-62.635	-44.3813	-241.553	-75.6217	-65.0535	-243.035	-91.6317	-84.5425	-217.002	-67.3424	-39.2826	-224.9	-82.1548	-57.9401	-229.141	-91.6652	-73.2117	-197.717	-66.7323	-28.5992	-197.526	-84.0084	-44.6529	-197.56	-97.8952	-53.5007	-211.611	-52.1889	-3.69626	-208.942	-45.463	20.1179	-227.766	-33.399	8.84032	
309	2.575	-229.767	-2.31324	2.50108	-239.286	4.48275	-19.9356	-251.752	3.662	-41.4383	-257.512	1.37543	-59.4013	-253.43	-41.7027	-47.6374	-256.948	-52.0135	-65.0435	-264.376	-60.2337	-82.3014	-239.128	-62.1067	-48.0895	-243.818	-74.629	-64.403	-249.54	-90.593	-83.1653	-219.664	-69.6434	-37.8286	-226.258	-83.0605	-56.2962	-232.046	-94.7179	-72.476	-201.167	-69.2198	-28.2211	-200.628	-84.9046	-42.2539	-203.184	-98.3714	-56.27	-215.799	-49.4959	-0.783286	-212.252	-43.2346	19.1632	-231.026	-31.3202	8.78282	
310	2.58333	-231.863	0.518467	1.53108	-239.536	8.13677	-19.5176	-252.866	8.00361	-42.2874	-260.948	3.76726	-62.7577	-254.442	-41.3008	-47.8438	-263.33	-47.0479	-65.116	-272.108	-58.3859	-85.486	-239.898	-60.5072	-44.7578	-250.974	-69.4034	-62.5544	-257.407	-87.4356	-84.2701	-227.535	-69.8238	-40.5492	-231.369	-83.5557	-55.0671	-238.903	-93.034	-70.5371	-202.238	-71.1383	-25.9041	-206.84	-86.1086	-43.3372	-212.736	-96.8582	-53.2388	-217.129	-47.3819	-0.155485	-212.615	-40.8227	21.4013	-234.516	-27.3958	6.90458	
311	2.59167	-228.887	0.772745	0.955128	-238.426	8.45774	-20.4003	-248.986	6.96575	-40.9656	-257.515	5.99407	-60.528	-255.739	-34.3701	-45.5932	-265.958	-45.2343	-67.9041	-270.849	-55.3374	-84.4141	-245.497	-56.6634	-45.6172	-253.808	-69.8886	-64.8371	-262.13	-82.1674	-81.228	-229.112	-65.3243	-38.106	-235.86	-79.3466	-52.7311	-245.52	-92.6351	-71.916	-206.59	-72.8519	-26.3314	-212.971	-86.9346	-43.9183	-215.179	-101.474	-57.3958	-219.323	-48.3253	-0.654318	-213.544	-40.978	23.0202	-237.727	-26.1176	6.69057	
312	2.6	-228.272	1.66805	-0.443549	-237.791	7.65542	-23.8794	-246.309	9.94889	-40.8288	-254.576	11.4052	-58.9853	-256.839	-33.6746	-49.4111	-267.098	-40.771	-69.2301	-275.316	-50.2894	-86.5535	-249.245	-56.1488	-48.4022	-256.742	-64.6723	-64.6652	-266.599	-79.8056	-85.0566	-231.18	-65.2895	-37.9993	-243.368	-78.3021	-56.3704	-250.896	-88.9721	-71.4659	-211.798	-76.0321	-29.3202	-214.258	-86.7944	-40.0543	-223.704	-97.1042	-57.2914	-222.565	-49.8554	-3.95617	-214.31	-43.5361	22.3469	-236.706	-23.8376	4.44658	
313	2.60833	-227.19	4.91078	-0.0593682	-235.828	12.3475	-24.3337	-246.657	14.2378	-44.4082	-252.696	12.0316	-62.2893	-256.674	-27.0567	-47.2435	-265.44	-38.7342	-69.5414	-274.667	-47.7769	-87.5892	-249.488	-53.8176	-47.3185	-259.378	-61.2056	-64.6686	-268.595	-78.1572	-86.0345	-235.793	-64.8839	-40.0957	-245.033	-75.8459	-56.3147	-252.214	-89.5023	-70.5429	-216.065	-70.9853	-27.9295	-221.578	-87.051	-44.1393	-227.003	-98.641	-52.7935	-225.731	-47.4677	-4.745	-216.549	-43.1465	18.2451	-233.332	-24.8218	5.90837	
314	2.61667	-224.219	5.23406	-0.923899	-230.816	12.264	-23.5512	-242.997	12.9821	-44.8844	-251.18	20.2729	-62.7981	-253.573	-29.0596	-48.311	-265.013	-30.6492	-67.5307	-276.241	-38.8701	-89.5983	-251.112	-49.4243	-46.9985	-261.004	-59.0717	-65.4046	-272.945	-73.2758	-86.9332	-237.05	-65.9532	-38.5937	-248.33	-72.7279	-56.4228	-256.243	-84.6842	-70.5497	-217.659	-74.4124	-27.8503	-223.706	-84.7572	-40.5487	-233.047	-94.765	-53.6438	-223.998	-48.0938	-3.36185	-217.706	-36.8707	21.4256	-235.622	-21.6369	5.57275	
315	2.625	-220.539	4.51266	-0.420908	-229.838	12.2942	-26.0323	-239.142	14.5924	-47.2167	-244.409	19.4987	-63.2178	-254.301	-26.1515	-51.2504	-261.939	-31.9787	-68.644	-275.564	-38.2379	-92.0739	-250.113	-49.2783	-46.8873	-263.642	-59.5975	-69.0353	-273.886	-69.9543	-87.5262	-238.666	-63.7188	-37.5937	-251.103	-75.0796	-56.8162	-262.124	-80.7631	-73.769	-225.189	-71.6016	-30.3658	-229.55	-85.0781	-42.2235	-236.912	-95.0461	-52.0399	-226.327	-46.503	-3.24746	-219.474	-38.8539	22.229	-234.075	-18.8376	3.68568	
